# AST/ASF file generated using VICON BodyLanguage
# -----------------------------------------------
:version 1.10
:name VICON
:units
  mass 1.0
  length 0.45
  angle deg
:documentation
   .ast/.asf automatically generated from VICON data using
   VICON BodyBuilder and BodyLanguage model FoxedUp or BRILLIANT.MOD
:root
   order TX TY TZ RX RY RZ
   axis XYZ
   position 0 0 0  
   orientation 0 0 0 
:bonedata
  begin
     id 1 
     name lhipjoint
     direction 0.722297 -0.617336 0.311742 
     length 2.6635 
     axis 0 0 0  XYZ
  end
  begin
     id 2 
     name lfemur
     direction 0.34202 -0.939693 0  
     length 7.39349  
     axis 0 0 20  XYZ
    dof rx ry rz
    limits (-160.0 20.0)
           (-70.0 70.0)
           (-60.0 70.0)
  end
  begin
     id 3 
     name ltibia
     direction 0.34202 -0.939693 0   
     length 7.36294   
     axis 0 0 20   XYZ
    dof rx
    limits (-10.0 170.0)
  end
  begin
     id 4 
     name lfoot
     direction 0.104879 -0.288152 0.951824   
     length 2.16981   
     axis -90 7.62852e-016 20   XYZ
    dof rx rz
    limits (-45.0 90.0)
           (-70.0 20.0)
  end
  begin
     id 5 
     name ltoes
     direction 1.53586e-011 -4.21895e-011 1   
     length 1.08218   
     axis -90 7.62852e-016 20   XYZ
    dof rx
    limits (-90.0 20.0)
  end
  begin
     id 6 
     name rhipjoint
     direction -0.75102 -0.589393 0.297631   
     length 2.78977  
     axis 0 0 0  XYZ 
  end
  begin
     id 7 
     name rfemur
     direction -0.34202 -0.939693 0   
     length 7.46076   
     axis 0 0 -20   XYZ
    dof rx ry rz
    limits (-160.0 20.0)
           (-70.0 70.0)
           (-70.0 60.0)
  end
  begin
     id 8 
     name rtibia
     direction -0.34202 -0.939693 0   
     length 7.31726   
     axis 0 0 -20   XYZ
    dof rx
    limits (-10.0 170.0)
 end
 begin
     id 9 
     name rfoot
     direction -0.107991 -0.296704 0.948844   
     length 2.09388  
     axis -90 -7.62852e-016 -20   XYZ
    dof rx rz
    limits (-45.0 90.0)
           (-20.0 70.0)
  end
  begin
     id 10 
     name rtoes
     direction -1.53559e-011 -4.21911e-011 1   
     length 1.04433   
     axis -90 -7.62852e-016 -20   XYZ
    dof rx
    limits (-90.0 20.0)
  end
  begin
     id 11 
     name lowerback
     direction 0.0165164 0.98272 0.184358   
     length 1.71896   
     axis 0 0 0   XYZ
    dof rx ry rz
    limits (-20.0 45.0)
           (-30.0 30.0)
           (-30.0 30.0)
  end
  begin
     id 12 
     name upperback
     direction -0.00887249 0.992297 0.123566   
     length 1.71504   
     axis 0 0 0   XYZ
    dof rx ry rz
    limits (-20.0 45.0)
           (-30.0 30.0)
           (-30.0 30.0)
  end
  begin
     id 13 
     name thorax
     direction -0.0157026 0.998908 0.0440032   
     length 1.77022   
     axis 0 0 0   XYZ
    dof rx ry rz
    limits (-20.0 45.0)
           (-30.0 30.0)
           (-30.0 30.0)
  end
  begin
     id 14 
     name lowerneck
     direction -0.0238856 0.998137 0.0561411   
     length 1.89341   
     axis 0 0 0   XYZ
    dof rx ry rz
    limits (-20.0 45.0)
           (-30.0 30.0)
           (-30.0 30.0)
  end
  begin
     id 15 
     name upperneck
     direction 0.0276574 0.952253 -0.304056   
     length 1.86999   
     axis 0 0 0   XYZ
    dof rx ry rz
    limits (-20.0 45.0)
           (-30.0 30.0)
           (-30.0 30.0)
  end
  begin
     id 16
     name head
     direction 0.00800083 0.994258 -0.106712  
     length 1.91492  
     axis 0 0 0   XYZ
    dof rx ry rz
    limits (-20.0 45.0)
           (-30.0 30.0)
           (-30.0 30.0)
  end
  begin
     id 17 
     name lclavicle
     direction 0.97203 0.225407 0.06595  
     length 3.34889  
     axis 0 0 0   XYZ
    dof ry rz
    limits (-20.0 10.0)
           (0.0 20.0)
  end
  begin
     id 18 
     name lhumerus
     direction 1 -4.48973e-011 2.20267e-027   
     length 4.85645   
     axis 180 -30 -90   XYZ
    dof rx ry rz
    limits (-60.0 90.0)
           (-90.0 90.0)
           (-90.0 90.0)
  end
  begin
     id 19
     name lradius
     direction 1 -4.4897e-011 4.60472e-027   
     length 2.79874   
     axis 180 -30 -90   XYZ
    dof rx
    limits (-10.0 170.0)
  end
  begin
     id 20
     name lwrist
     direction 1 -4.48952e-011 1.14928e-026   
     length 1.39937   
     axis -6.29373e-015 90 90   XYZ
    dof ry
    limits (-180.0 0.0)
 end
  begin
     id 21 
     name lhand
     direction 1 -4.48967e-011 2.29886e-026   
     length 0.573398   
     axis -1.46689e-014 90 90   XYZ
    dof rx rz
    limits (-90.0 90.0)
           (-45.0 45.0)
  end
  begin
     id 22 
     name lfingers
     direction 1 -4.48955e-011 4.59726e-026   
     length 0.462289   
     axis -2.93383e-014 90 90   XYZ
    dof rx
    limits (0.0 90.0)
  end
  begin
     id 23
     name lthumb
     direction 0.707107 -6.34866e-011 0.707107   
     length 0.663757   
     axis -90 45 5.69224e-014   XYZ
    dof rx rz
    limits (-45.0 45.0)
           (-45.0 45.0)
  end
  begin
     id 24 
     name rclavicle
     direction -0.981571 0.157346 0.108443   
     length 3.35257  
     axis 0 0 0   XYZ 
    dof ry rz
    limits (-10.0 20.0)
           (-20.0 0.0)
  end
  begin
     id 25 
     name rhumerus
     direction -1 -4.48967e-011 8.58308e-029  
     length 4.67018   
     axis 180 30 90   XYZ
    dof rx ry rz
    limits (-90.0 60.0)
           (-90.0 90.0)
           (-90.0 90.0)
  end
  begin
     id 26 
     name rradius
     direction -1 -4.48958e-011 4.52548e-027   
     length 2.65534   
     axis 180 30 90   XYZ
    dof rx
    limits (-10.0 170.0)
  end
  begin
     id 27 
     name rwrist
     direction -1 -4.48977e-011 1.14952e-026   
     length 1.32767   
     axis -6.29373e-015 -90 -90   XYZ
    dof ry
    limits (-180.0 0.0)
  end
  begin
     id 28
     name rhand
     direction -1 -4.48924e-011 2.29804e-026   
     length 0.594069   
     axis -1.46689e-014 -90 -90   XYZ
    dof rx rz
    limits (-90.0 90.0)
           (-45.0 45.0)
  end
  begin
     id 29
     name rfingers
     direction -1 -4.48998e-011 4.59888e-026   
     length 0.478954   
     axis -2.93383e-014 -90 -90   XYZ
    dof rx
    limits (0.0 90.0)
  end
  begin
     id 30
     name rthumb
     direction -0.707107 -6.34933e-011 0.707107   
     length 0.687685   
     axis -90 -45 -5.69224e-014   XYZ
    dof rx rz
    limits (-45.0 45.0)
           (-45.0 45.0)
  end
:hierarchy
  begin
    root lhipjoint rhipjoint lowerback
    lhipjoint lfemur
    lfemur ltibia
    ltibia lfoot
    lfoot ltoes
    rhipjoint rfemur
    rfemur rtibia
    rtibia rfoot
    rfoot rtoes
    lowerback upperback
    upperback thorax
    thorax lowerneck lclavicle rclavicle
    lowerneck upperneck
    upperneck head
    lclavicle lhumerus
    lhumerus lradius
    lradius lwrist
    lwrist lhand lthumb
    lhand lfingers
    rclavicle rhumerus
    rhumerus rradius
    rradius rwrist
    rwrist rhand rthumb
    rhand rfingers
  end

#!OML:ASF E:\pregnant2\Project 1\Capture day 1\Session 1\pregnant2.ASF
:FULLY-SPECIFIED
:DEGREES
98
root 5.93946 16.7066 25.4383 -142.104 0.898123 181.186
lowerback -23.548 -2.47393 4.24966
upperback -17.4866 1.10156 0.571031
thorax -6.47182 2.42585 -1.82897
lowerneck -14.5049 -6.05919 -3.54663
upperneck 42.7097 -2.25034 -1.1285
head 18.6824 0.265245 0.300769
rclavicle 1.27471e-014 -5.76476e-015
rhumerus -36.1313 14.4319 -93.6934
rradius 38.229
rwrist 8.00996
rhand -17.2106 -17.9246
rfingers 7.12502
rthumb 9.03216 -47.7112
lclavicle 1.27471e-014 -5.76476e-015
lhumerus -53.5822 7.41497 75.4253
lradius 28.0427
lwrist -5.72371
lhand -8.36472 25.795
lfingers 7.12502
lthumb 17.5579 55.0222
rfemur -40.1279 5.69746 24.8936
rtibia 30.5838
rfoot -22.8985 -9.33451
rtoes -8.00599
lfemur -68.3456 -13.8371 3.27077
ltibia 16.1181
lfoot -0.567032 27.3001
ltoes -12.5293
99
root 5.92381 16.6815 25.2934 -142.123 0.896965 181.093
lowerback -23.6091 -2.53868 4.08049
upperback -17.5045 1.05871 0.565491
thorax -6.45997 2.42691 -1.74698
lowerneck -14.5104 -6.07848 -3.51729
upperneck 42.7615 -2.24811 -1.18555
head 18.7143 0.26945 0.2709
rclavicle 6.83322e-016 -2.88238e-015
rhumerus -36.2322 14.3037 -93.7115
rradius 38.4641
rwrist 7.96622
rhand -17.2032 -17.9881
rfingers 7.12502
rthumb 9.03926 -47.7744
lclavicle 6.83322e-016 -2.88238e-015
lhumerus -53.6429 7.41208 75.3507
lradius 27.8832
lwrist -5.80927
lhand -8.41552 25.8247
lfingers 7.12502
lthumb 17.509 55.0563
rfemur -39.7114 5.80722 24.6957
rtibia 30.9326
rfoot -23.1992 -9.61836
rtoes -8.71274
lfemur -67.971 -13.0063 1.07792
ltibia 16.5025
lfoot -0.0156331 24.9125
ltoes -13.9459
100
root 5.90697 16.6588 25.1476 -142.156 0.905885 180.972
lowerback -23.6546 -2.60923 3.87979
upperback -17.5229 1.01286 0.552697
thorax -6.45496 2.42811 -1.65611
lowerneck -14.5078 -6.09928 -3.48602
upperneck 42.8066 -2.25084 -1.24229
head 18.7397 0.271826 0.239775
rclavicle 1.00759e-014 -2.08724e-015
rhumerus -36.3797 14.1661 -93.7201
rradius 38.7018
rwrist 7.94559
rhand -17.2096 -18.0331
rfingers 7.12502
rthumb 9.03312 -47.8197
lclavicle 1.00759e-014 -2.08724e-015
lhumerus -53.6875 7.39795 75.2919
lradius 27.7207
lwrist -5.96295
lhand -8.41957 25.8388
lfingers 7.12502
lthumb 17.5051 55.0707
rfemur -39.2985 5.9419 24.4479
rtibia 31.3197
rfoot -23.4558 -9.92615
rtoes -9.43247
lfemur -67.6774 -12.2662 -0.987038
ltibia 17.0962
lfoot 0.849725 22.4963
ltoes -15.0486
101
root 5.88859 16.6426 25 -142.24 0.948903 180.809
lowerback -23.6567 -2.68223 3.62877
upperback -17.5341 0.964955 0.528147
thorax -6.45976 2.42805 -1.55056
lowerneck -14.4888 -6.11778 -3.44869
upperneck 42.8436 -2.25048 -1.3048
head 18.7551 0.275739 0.205528
rclavicle 8.32411e-016 3.77691e-015
rhumerus -36.5706 14.0092 -93.7183
rradius 38.9295
rwrist 7.96509
rhand -17.2302 -18.0509
rfingers 7.12502
rthumb 9.01323 -47.8383
lclavicle 8.32411e-016 3.77691e-015
lhumerus -53.7229 7.38415 75.2437
lradius 27.5543
lwrist -6.17801
lhand -8.37956 25.8437
lfingers 7.12502
lthumb 17.5436 55.0721
rfemur -38.8325 6.09399 24.1315
rtibia 31.7079
rfoot -23.6367 -10.2302
rtoes -10.1458
lfemur -67.4336 -11.7811 -2.6545
ltibia 17.7887
lfoot 1.9862 20.4205
ltoes -15.6795
102
root 5.86857 16.6347 24.8506 -142.385 1.04411 180.593
lowerback -23.6009 -2.75835 3.30955
upperback -17.5388 0.91558 0.489878
thorax -6.48162 2.42772 -1.42261
lowerneck -14.4521 -6.1343 -3.41024
upperneck 42.8784 -2.24272 -1.37439
head 18.764 0.282626 0.169527
rclavicle 4.72114e-016 -2.78299e-015
rhumerus -36.8006 13.8425 -93.7104
rradius 39.1292
rwrist 8.01782
rhand -17.2553 -18.062
rfingers 7.12502
rthumb 8.98903 -47.8505
lclavicle 4.72114e-016 -2.78299e-015
lhumerus -53.7528 7.38357 75.2009
lradius 27.3758
lwrist -6.43871
lhand -8.3233 25.8324
lfingers 7.12502
lthumb 17.5977 55.056
rfemur -38.3078 6.22923 23.7417
rtibia 32.1001
rfoot -23.7242 -10.4865
rtoes -10.8705
lfemur -67.2049 -11.6068 -3.85264
ltibia 18.4965
lfoot 3.29444 18.8428
ltoes -15.9269
103
root 5.84719 16.6343 24.6997 -142.583 1.19186 180.31
lowerback -23.4815 -2.84555 2.90608
upperback -17.5451 0.859814 0.436926
thorax -6.5332 2.42746 -1.26577
lowerneck -14.3986 -6.15131 -3.37593
upperneck 42.9194 -2.22814 -1.44787
head 18.7722 0.292718 0.134451
rclavicle -1.64867e-014 -3.18055e-015
rhumerus -37.0673 13.6391 -93.6907
rradius 39.3013
rwrist 8.08966
rhand -17.2455 -18.1225
rfingers 7.12502
rthumb 8.99846 -47.9106
lclavicle -1.64867e-014 -3.18055e-015
lhumerus -53.7908 7.38411 75.1726
lradius 27.201
lwrist -6.70769
lhand -8.2664 25.8215
lfingers 7.12502
lthumb 17.6525 55.0401
rfemur -37.7672 6.30461 23.2815
rtibia 32.5571
rfoot -23.7406 -10.6529
rtoes -11.5561
lfemur -66.9655 -11.7314 -4.64246
ltibia 19.1686
lfoot 4.58101 17.7862
ltoes -15.802
104
root 5.82511 16.6382 24.5486 -142.788 1.37319 179.953
lowerback -23.3252 -2.95433 2.41385
upperback -17.561 0.79034 0.372097
thorax -6.61181 2.42799 -1.07564
lowerneck -14.3445 -6.17167 -3.35208
upperneck 42.9704 -2.2124 -1.5192
head 18.7872 0.302974 0.102856
rclavicle -3.59055e-015 2.38542e-015
rhumerus -37.3568 13.386 -93.654
rradius 39.4382
rwrist 8.18249
rhand -17.206 -18.2378
rfingers 7.12502
rthumb 9.03655 -48.0242
lclavicle -3.59055e-015 2.38542e-015
lhumerus -53.8189 7.39628 75.1523
lradius 27.017
lwrist -6.98101
lhand -8.22301 25.8092
lfingers 7.12502
lthumb 17.6943 55.0241
rfemur -37.3094 6.28695 22.7611
rtibia 33.1712
rfoot -23.7093 -10.7156
rtoes -12.2174
lfemur -66.7365 -12.0632 -5.19123
ltibia 19.8035
lfoot 5.71436 17.0781
ltoes -15.4161
105
root 5.80345 16.6408 24.4001 -142.929 1.54556 179.521
lowerback -23.1777 -3.10458 1.83689
upperback -17.604 0.693527 0.30412
thorax -6.71755 2.42981 -0.847588
lowerneck -14.2894 -6.1952 -3.34348
upperneck 43.0262 -2.19819 -1.58109
head 18.8059 0.312014 0.0783849
rclavicle 4.46023e-015 4.77083e-015
rhumerus -37.6685 13.0714 -93.5932
rradius 39.5305
rwrist 8.31858
rhand -17.1838 -18.3469
rfingers 7.12502
rthumb 9.05801 -48.1324
lclavicle 4.46023e-015 4.77083e-015
lhumerus -53.8212 7.42728 75.1325
lradius 26.8106
lwrist -7.26727
lhand -8.19986 25.8006
lfingers 7.12502
lthumb 17.7165 55.0136
rfemur -37.0638 6.16616 22.1949
rtibia 34.03
rfoot -23.6399 -10.6992
rtoes -12.881
lfemur -66.5853 -12.4406 -5.74238
ltibia 20.4409
lfoot 6.52336 16.4746
ltoes -14.9351
106
root 5.78296 16.6383 24.2554 -142.976 1.66789 179.037
lowerback -23.0566 -3.29666 1.20846
upperback -17.6733 0.56607 0.237505
thorax -6.84208 2.43047 -0.595639
lowerneck -14.2499 -6.22759 -3.36202
upperneck 43.085 -2.20042 -1.61832
head 18.8327 0.312717 0.0669656
rclavicle -3.35449e-016 7.35503e-015
rhumerus -37.9901 12.6886 -93.5021
rradius 39.5853
rwrist 8.45757
rhand -17.1659 -18.481
rfingers 7.12502
rthumb 9.07526 -48.2658
lclavicle -3.35449e-016 7.35503e-015
lhumerus -53.7749 7.47472 75.1103
lradius 26.5791
lwrist -7.57158
lhand -8.19973 25.7832
lfingers 7.12502
lthumb 17.7167 54.9961
rfemur -37.0799 5.94259 21.6232
rtibia 35.18
rfoot -23.5409 -10.62
rtoes -13.5259
lfemur -66.5285 -12.7004 -6.5199
ltibia 21.1426
lfoot 6.93873 15.736
ltoes -14.5979
107
root 5.76354 16.6297 24.1143 -142.952 1.71982 178.543
lowerback -22.967 -3.51171 0.582315
upperback -17.752 0.417596 0.177812
thorax -6.96302 2.42743 -0.341075
lowerneck -14.2189 -6.26848 -3.41254
upperneck 43.1343 -2.22336 -1.62477
head 18.858 0.302293 0.0712978
rclavicle 7.33018e-016 -5.1684e-015
rhumerus -38.3297 12.2331 -93.3737
rradius 39.5925
rwrist 8.64033
rhand -17.2376 -18.5051
rfingers 7.12502
rthumb 9.00611 -48.2929
lclavicle 7.33018e-016 -5.1684e-015
lhumerus -53.6673 7.5451 75.0795
lradius 26.3223
lwrist -7.92101
lhand -8.20402 25.7797
lfingers 7.12502
lthumb 17.7125 54.9929
rfemur -37.3228 5.64904 21.091
rtibia 36.6086
rfoot -23.3878 -10.5053
rtoes -14.1973
lfemur -66.5407 -12.7239 -7.65328
ltibia 21.9647
lfoot 6.9756 14.6975
ltoes -14.376
108
root 5.74461 16.6165 23.9752 -142.906 1.7002 178.084
lowerback -22.89 -3.72237 0.00890334
upperback -17.8165 0.263074 0.127838
thorax -7.06174 2.41724 -0.105346
lowerneck -14.2005 -6.31638 -3.48927
upperneck 43.1658 -2.26558 -1.61097
head 18.8772 0.279568 0.085117
rclavicle 2.48481e-015 4.91992e-015
rhumerus -38.6742 11.7306 -93.2085
rradius 39.5575
rwrist 8.81195
rhand -17.3736 -18.4799
rfingers 7.12502
rthumb 8.8748 -48.2733
lclavicle 2.48481e-015 4.91992e-015
lhumerus -53.4923 7.63176 75.0547
lradius 26.0571
lwrist -8.29821
lhand -8.224 25.7734
lfingers 7.12502
lthumb 17.6933 54.9884
rfemur -37.704 5.32233 20.6353
rtibia 38.2569
rfoot -23.1436 -10.3628
rtoes -14.9007
lfemur -66.5727 -12.4807 -9.14264
ltibia 22.9327
lfoot 6.66074 13.3337
ltoes -14.1755
